<svg xmlns="http://www.w3.org/2000/svg" width="64" height="64" shape-rendering="geometricPrecision" text-rendering="geometricPrecision" image-rendering="optimizeQuality" fill-rule="evenodd" clip-rule="evenodd" viewBox="0 0 640 640"><path d="M-.012 130.478c90.013-55.513 182.093-64.064 277.41 0v414.785c-65.895-48.804-161.59-42.898-277.41 0V130.478zm307.764 1.028h27.52c5.61 0 10.193 4.57 10.193 10.18v402.549c0 5.622-4.583 10.193-10.193 10.193h-27.52c-5.598 0-10.181-4.571-10.181-10.193V141.687c0-5.61 4.583-10.181 10.181-10.181zm332.236-1.028c-90.025-55.513-182.14-64.064-277.456 0v414.785c65.895-48.804 161.6-42.898 277.456 0V130.478z"/></svg>