<svg xmlns="http://www.w3.org/2000/svg" width="64" height="64" shape-rendering="geometricPrecision" text-rendering="geometricPrecision" image-rendering="optimizeQuality" fill-rule="evenodd" clip-rule="evenodd" viewBox="0 0 640 640"><path d="M529.176 9.697l98.068 98.056c12.945 12.945 12.945 34.123 0 47.068l-54.26 54.26L427.848 63.957l54.26-54.26c12.945-12.945 34.123-12.945 47.068 0zM412.564 228.286l.024.024v.035a20.665 20.665 0 0 1 6.047 14.61c0 5.256-2.02 10.548-6.036 14.599v.035l-.035.036-234.121 234.133-.024.024h-.035a20.807 20.807 0 0 1-3.662 2.905h-.035a20.208 20.208 0 0 1-4.087 1.949c-7.263 2.527-15.685.898-21.46-4.878h-.048l-.012-.012v-.035a21.331 21.331 0 0 1-2.917-3.662v-.047a20.766 20.766 0 0 1-1.949-4.075c-2.527-7.264-.886-15.697 4.878-21.473v-.035l234.133-234.133.024-.012h.035a20.665 20.665 0 0 1 14.61-6.047 20.723 20.723 0 0 1 14.6 6.024h.035l.035.035zm-210.57 351.489c-39.26 12.154-78.532 24.296-117.793 36.437C-8.115 644.76-7.702 663.8 17.491 574.91l39.674-139.962v-.012l-.153-.142L400.386 91.407l145.136 145.136L202.148 579.93l-.154-.153zM81.922 459.703l95.304 95.316-77.386 23.847c-60.65 18.697-60.367 31.205-43.879-27.201l25.96-91.962zM511.801 67.442l57.686 57.698-20.823 20.823-57.686-57.698L511.8 67.442z"/></svg>